
<svg xmlns="http://www.w3.org/2000/svg" width="20" height="18" viewBox="0 0 20 18">
  <g id="noun-camera-4506310" transform="translate(-116.671 -46.668)">
    <path id="Path_8158" data-name="Path 8158" d="M280,213.078a3.078,3.078,0,1,1,3.078,3.078A3.078,3.078,0,0,1,280,213.078Z" transform="translate(-156.406 -156.423)" fill="#5a5a5a"/>
    <path id="Path_8159" data-name="Path 8159" d="M122.224,48.326a3,3,0,0,1,2.683-1.658h3.681a3,3,0,0,1,2.769,1.846l.225.539a1,1,0,0,0,.923.615h1.167a3,3,0,0,1,3,3v9a3,3,0,0,1-3,3h-14a3,3,0,0,1-3-3v-9a3,3,0,0,1,3-3h1.264a1,1,0,0,0,.894-.553Zm4.447,3.342a5,5,0,1,0,5,5A5,5,0,0,0,126.671,51.668Z" transform="translate(0 0)" fill="#5a5a5a" fill-rule="evenodd"/>
  </g>
</svg>
