<svg id="Component_226_1" data-name="Component 226 – 1" xmlns="http://www.w3.org/2000/svg" width="15" height="15" viewBox="0 0 15 15">
  <rect id="Rectangle_25963" data-name="Rectangle 25963" width="15" height="15" fill="none"/>
  <path id="Path_27154" data-name="Path 27154" d="M523-1202.5a7.508,7.508,0,0,1,7.5-7.5,7.508,7.508,0,0,1,7.5,7.5,7.508,7.508,0,0,1-7.5,7.5A7.508,7.508,0,0,1,523-1202.5Zm1.123,0a6.385,6.385,0,0,0,6.377,6.378,6.385,6.385,0,0,0,6.378-6.378,6.385,6.385,0,0,0-6.378-6.378A6.384,6.384,0,0,0,524.123-1202.5Zm5.817.233v-4.957h1.122v4.491l2.681,2.681-.794.793Z" transform="translate(-523 1210)" fill="#999"/>
</svg>
