<svg xmlns="http://www.w3.org/2000/svg" width="20" height="20" viewBox="0 0 20 20">
  <g id="Group_16484" data-name="Group 16484" transform="translate(-814 -343)">
    <rect id="Rectangle_25934" data-name="Rectangle 25934" width="20" height="20" transform="translate(814 343)" fill="none"/>
    <g id="Layer_3" data-name="Layer 3" transform="translate(813 341)">
      <path id="Path_27124" data-name="Path 27124" d="M18.541,4H3.459A2.462,2.462,0,0,0,1,6.459V17.541A2.462,2.462,0,0,0,3.459,20H18.541A2.462,2.462,0,0,0,21,17.541V6.459A2.462,2.462,0,0,0,18.541,4ZM3.459,5.333H18.541a1.127,1.127,0,0,1,1.126,1.126v.51L11,12.541,2.333,6.969v-.51A1.127,1.127,0,0,1,3.459,5.333ZM18.541,18.667H3.459a1.127,1.127,0,0,1-1.126-1.126V8.555l8.306,5.339a.667.667,0,0,0,.721,0l8.306-5.339v8.986a1.127,1.127,0,0,1-1.126,1.126Z" fill="#666"/>
    </g>
  </g>
</svg>
