<svg id="Component_120_4" data-name="Component 120 – 4" xmlns="http://www.w3.org/2000/svg" width="20.002" height="20" viewBox="0 0 20.002 20">
  <rect id="Rectangle_2720" data-name="Rectangle 2720" width="20" height="20" transform="translate(0.002)" fill="none"/>
  <g id="Group_16637" data-name="Group 16637" transform="translate(0.002)">
    <rect id="Rectangle_25962" data-name="Rectangle 25962" width="20" height="20" fill="none"/>
    <path id="Union_4" data-name="Union 4" d="M22664.512,22976.971l3.479-3.477,2.357-2.359.883-.883,3.535-3.535.883-.881,1.412-1.414.945-.945,3.479-3.477,1.061,1.061-3.227,3.227a13.094,13.094,0,0,1,3.6,3.895.629.629,0,0,1,0,.605,12.789,12.789,0,0,1-2.555,3.063,11.012,11.012,0,0,1-7.365,2.883,10.617,10.617,0,0,1-3.533-.594l-3.893,3.893Zm8.488-3.482c4.955,0,7.867-3.83,8.639-5a12.3,12.3,0,0,0-3.234-3.287l-1.914,1.914a3.75,3.75,0,0,1-4.861,4.861l-1.162,1.162A9.287,9.287,0,0,0,22673,22973.488Zm0-2.5a2.5,2.5,0,0,0,2.5-2.5,2.38,2.38,0,0,0-.025-.355l-2.828,2.828A2.694,2.694,0,0,0,22673,22970.984Zm-9.924-2.2a.629.629,0,0,1,0-.605c.346-.605,3.582-5.945,9.924-5.945a10.7,10.7,0,0,1,3.529.594l-1.008,1.01a9.1,9.1,0,0,0-2.521-.352c-4.992,0-7.871,3.83-8.637,5a12.354,12.354,0,0,0,3.229,3.281l-.912.91A13.332,13.332,0,0,1,22663.076,22968.787Zm6.176-.3a3.756,3.756,0,0,1,3.748-3.754,3.688,3.688,0,0,1,1.367.26l-1.014,1.014c-.127-.012-.242-.023-.354-.023a2.5,2.5,0,0,0-2.5,2.5,2.416,2.416,0,0,0,.023.352l-1.01,1.01A3.668,3.668,0,0,1,22669.252,22968.488Z" transform="translate(-22663 -22958.236)" fill="#ccc"/>
  </g>
</svg>
