<svg id="Component_120_2" data-name="Component 120 – 2" xmlns="http://www.w3.org/2000/svg" width="22" height="22" viewBox="0 0 20 20">
  <rect id="Rectangle_2720" data-name="Rectangle 2720" width="20" height="20" fill="none"/>
  <g id="Group_16637" data-name="Group 16637">
    <rect id="Rectangle_25962" data-name="Rectangle 25962" width="20" height="20" fill="none"/>
    <path id="Show" d="M10,36.5C3.457,36.5.214,30.8.079,30.554a.625.625,0,0,1,0-.607C.214,29.7,3.457,24,10,24s9.786,5.7,9.921,5.946a.625.625,0,0,1,0,.607C19.786,30.8,16.543,36.5,10,36.5ZM1.36,30.249c.743,1.127,3.662,5,8.64,5,4.993,0,7.9-3.871,8.64-5-.743-1.127-3.662-5-8.64-5C5.007,25.25,2.1,29.121,1.36,30.249ZM10,34a3.75,3.75,0,1,1,3.75-3.75A3.754,3.754,0,0,1,10,34Zm0-6.25a2.5,2.5,0,1,0,2.5,2.5A2.5,2.5,0,0,0,10,27.75Z" transform="translate(0 -20)" fill="#ccc"/>
  </g>
</svg>
