<svg xmlns="http://www.w3.org/2000/svg" width="24" height="24" viewBox="0 0 24 24">
  <g id="Group_16833" data-name="Group 16833" transform="translate(-55 -151)">
    <g id="Ellipse_651" data-name="Ellipse 651" transform="translate(56 152)" fill="#ffffc2" stroke="#ccc" stroke-width="1">
      <circle cx="11" cy="11" r="11" stroke="none"/>
      <circle cx="11" cy="11" r="11.5" fill="none"/>
    </g>
    <g id="Component_50_8" data-name="Component 50 – 8" transform="translate(61 156)">
      <rect id="Rectangle_25967" data-name="Rectangle 25967" width="14" height="14" fill="none"/>
      <g id="layer1" transform="translate(0.845 0.036)">
        <path id="path898" d="M1.9.264a.447.447,0,0,0-.449.449V13.242a.448.448,0,0,0,.9,0V.713A.447.447,0,0,0,1.9.264Z" transform="translate(-0.012 -0.012)" fill="#666"/>
        <path id="path898_-_Outline" data-name="path898 - Outline" d="M1.89-.036h0A.735.735,0,0,1,2.626.7V13.23a.735.735,0,0,1-1.471,0V.7A.739.739,0,0,1,1.37.179.73.73,0,0,1,1.89-.036Zm0,13.425a.16.16,0,0,0,.16-.159V.7A.16.16,0,0,0,1.891.539v0a.159.159,0,0,0-.113.047A.161.161,0,0,0,1.73.7V13.23A.16.16,0,0,0,1.89,13.388Z" transform="translate(0 0)" fill="#666"/>
        <path id="rect900" d="M1.865,1.07a.448.448,0,0,0-.41.446V7.333a.448.448,0,0,0,.618.416A2.1,2.1,0,0,1,3.255,7.68c.477.077,1.051.238,1.731.383a10.135,10.135,0,0,0,5.556-.3.448.448,0,0,0,.311-.426V1.516a.448.448,0,0,0-.595-.423A7.949,7.949,0,0,1,5.7,1.569a11.821,11.821,0,0,0-3.832-.5Zm.486.948a14.345,14.345,0,0,1,3.174.429,9.172,9.172,0,0,0,4.433-.377v4.9a9.273,9.273,0,0,1-4.787.221c-.643-.137-1.213-.3-1.771-.393a3.626,3.626,0,0,0-1.05.079Z" transform="translate(-0.012 0.526)" fill="#666"/>
        <path id="rect900_-_Outline" data-name="rect900 - Outline" d="M2.5.742h0A9.98,9.98,0,0,1,4.957,1.1c.269.064.523.125.782.175A6.881,6.881,0,0,0,7.1,1.417,9.267,9.267,0,0,0,10.152.809a.735.735,0,0,1,.977.695V7.321a.733.733,0,0,1-.51.7,10.84,10.84,0,0,1-3.4.57,10.8,10.8,0,0,1-2.3-.258c-.279-.059-.534-.12-.781-.179-.355-.084-.662-.157-.936-.2A3.112,3.112,0,0,0,2.7,7.905a1.349,1.349,0,0,0-.533.1.735.735,0,0,1-1.016-.683V1.5A.731.731,0,0,1,1.828.771C2.052.752,2.276.742,2.5.742Zm4.6,1.25a7.43,7.43,0,0,1-1.469-.154c-.271-.053-.543-.118-.805-.18A9.512,9.512,0,0,0,2.5,1.317h0c-.2,0-.411.009-.619.027A.159.159,0,0,0,1.73,1.5V7.321a.16.16,0,0,0,.221.15A1.929,1.929,0,0,1,2.7,7.33a3.67,3.67,0,0,1,.586.054c.294.048.626.127.977.21.244.058.5.118.768.176a10.345,10.345,0,0,0,2.18.246,10.277,10.277,0,0,0,3.227-.542.16.16,0,0,0,.112-.153V1.5a.16.16,0,0,0-.212-.151A9.812,9.812,0,0,1,7.1,1.992Zm3.135-.319v5.5l-.207.061A10.273,10.273,0,0,1,7.1,7.677a9.386,9.386,0,0,1-2-.221c-.255-.054-.5-.113-.731-.169-.358-.086-.7-.168-1.026-.221a1.192,1.192,0,0,0-.192-.015,3.356,3.356,0,0,0-.522.057c-.082.013-.167.027-.253.038l-.325.043V1.722l.284,0a12,12,0,0,1,2.72.332c.168.034.339.069.514.1a6.673,6.673,0,0,0,1.29.121,10.592,10.592,0,0,0,3.006-.491ZM6.858,2.849a7.241,7.241,0,0,1-1.4-.131c-.177-.034-.349-.07-.519-.1a12.29,12.29,0,0,0-2.313-.319V6.527a3.367,3.367,0,0,1,.524-.05,1.76,1.76,0,0,1,.285.022c.351.057.7.141,1.069.23.23.056.469.113.716.166A8.826,8.826,0,0,0,7.1,7.1a9.557,9.557,0,0,0,2.556-.365v-4.3A10.717,10.717,0,0,1,6.858,2.849Z" transform="translate(0 0.538)" fill="#666"/>
      </g>
    </g>
  </g>
</svg>
