<svg xmlns="http://www.w3.org/2000/svg" width="20" height="20.051" viewBox="0 0 20 20.051">
  <g id="Group_16484" data-name="Group 16484" transform="translate(-814 -342.949)">
    <rect id="Rectangle_25934" data-name="Rectangle 25934" width="20" height="20" transform="translate(814 343)" fill="none"/>
    <g id="padlock" transform="translate(811.05 342)">
      <path id="Path_27125" data-name="Path 27125" d="M-4595.085-378a1.873,1.873,0,0,1-1.915-1.916V-388a1.871,1.871,0,0,1,1.865-1.915v-2.439a5.615,5.615,0,0,1,1.647-4,5.613,5.613,0,0,1,4-1.647,5.615,5.615,0,0,1,4,1.647,5.617,5.617,0,0,1,1.647,4v2.439a1.871,1.871,0,0,1,1.866,1.915v8.084a1.874,1.874,0,0,1-1.915,1.916Zm-.572-10v8.084a.537.537,0,0,0,.572.573h11.195a.537.537,0,0,0,.571-.573V-388a.537.537,0,0,0-.571-.573h-11.195A.537.537,0,0,0-4595.657-388Zm1.866-4.354v2.438h8.607v-2.438a4.257,4.257,0,0,0-4.3-4.3A4.257,4.257,0,0,0-4593.792-392.354Z" transform="translate(4601.95 398.95)" fill="#666"/>
    </g>
  </g>
</svg>
