<svg id="Component_42_18" data-name="Component 42 – 18" xmlns="http://www.w3.org/2000/svg" width="24" height="24" viewBox="0 0 24 24">
  <g id="back">
    <rect id="Rectangle_2720" data-name="Rectangle 2720" width="24" height="24" fill="none"/>
    <path id="Subtraction_2" data-name="Subtraction 2" d="M941.35,4.35a4.252,4.252,0,0,1-4.176-3.34l-.03-.142h-5.2a1.6,1.6,0,0,1-1.455-.929,1.539,1.539,0,0,1,.273-1.68L932.294-3.9a1.884,1.884,0,0,0,.353-1.093v-6.14a8.622,8.622,0,0,1,8.7-8.519,8.623,8.623,0,0,1,8.7,8.519v6.14a1.877,1.877,0,0,0,.353,1.092l1.519,2.14.014.017a1.539,1.539,0,0,1,.274,1.68,1.6,1.6,0,0,1-1.455.929h-5.2l-.029.142A4.255,4.255,0,0,1,941.35,4.35ZM938.588.868l.086.237a2.857,2.857,0,0,0,5.353,0l.086-.237h-5.525Zm2.762-19.134a7.222,7.222,0,0,0-7.289,7.135v6.14a3.244,3.244,0,0,1-.607,1.882L931.9-.915a.527.527,0,0,1-.08.09l-.339.308h19.743l-.34-.308a.519.519,0,0,1-.08-.092l-1.555-2.192a3.241,3.241,0,0,1-.607-1.881v-6.14A7.222,7.222,0,0,0,941.35-18.266Z" transform="translate(-929.35 19.65)" fill="#fff"/>
  </g>
</svg>
