<svg xmlns="http://www.w3.org/2000/svg" width="94" height="130" viewBox="0 0 94 130">
  <g id="Group_16525" data-name="Group 16525" transform="translate(-138 -358)">
    <g id="notes" transform="translate(152.28 358)">
      <path id="Subtraction_1" data-name="Subtraction 1" d="M51.855,79.721H4.425A4.41,4.41,0,0,1,0,75.336V10.271A4.41,4.41,0,0,1,4.425,5.886h7.92V1.16a1.176,1.176,0,0,1,2.353,0V5.886H26.963V1.16a1.176,1.176,0,0,1,2.353,0V5.886H41.582V1.16a1.176,1.176,0,0,1,2.353,0V5.886h7.92a4.41,4.41,0,0,1,4.425,4.386V75.336A4.41,4.41,0,0,1,51.855,79.721ZM4.425,8.206a2.071,2.071,0,0,0-2.072,2.066V75.336A2.071,2.071,0,0,0,4.425,77.4h47.43a2.071,2.071,0,0,0,2.072-2.065V10.271a2.071,2.071,0,0,0-2.072-2.066h-7.92v4.726a1.176,1.176,0,0,1-2.353,0V8.206H29.316v4.726a1.176,1.176,0,0,1-2.353,0V8.206H14.7v4.726a1.176,1.176,0,0,1-2.353,0V8.206Z" transform="translate(0)" fill="#666"/>
      <path id="Path_27151" data-name="Path 27151" d="M431.73-201.1H398.97a1.471,1.471,0,0,1-1.47-1.469,1.47,1.47,0,0,1,1.47-1.467h32.76a1.471,1.471,0,0,1,1.47,1.467A1.471,1.471,0,0,1,431.73-201.1Zm-19.484-13.779a1.46,1.46,0,0,1-.918-.322l-8.987-7.191a1.47,1.47,0,0,1-.228-2.065,1.465,1.465,0,0,1,1.148-.55,1.449,1.449,0,0,1,.917.323l7.88,6.3L425.52-233.99a1.472,1.472,0,0,1,1.115-.511,1.468,1.468,0,0,1,.959.356,1.469,1.469,0,0,1,.154,2.071L413.36-215.392A1.469,1.469,0,0,1,412.245-214.882Z" transform="translate(-386.79 263.848)" fill="#007251" stroke="#007251" stroke-linecap="round" stroke-width="1"/>
    </g>
    <path id="Path_27150" data-name="Path 27150" d="M-44.483-15.94H-39.7v15.1h3.6v-15.1h4.779v-2.918H-44.483ZM-18.3-18.884H-28.705V-.835H-18.3V-3.779h-6.809V-8.555h6.039v-2.866h-6.039V-15.94H-18.3ZM-2.5-6.051c0-6.352-9.2-4.338-9.2-7.953,0-1.472,1.054-2.169,2.467-2.117a2.371,2.371,0,0,1,2.57,2.143H-2.7c-.231-3.253-2.749-5.138-6.424-5.138-3.7,0-6.321,1.962-6.321,5.216-.026,6.533,9.225,4.183,9.225,8.082,0,1.291-1,2.195-2.7,2.195a2.467,2.467,0,0,1-2.724-2.4H-15.5c.051,3.408,2.929,5.371,6.655,5.371C-4.757-.654-2.5-3.211-2.5-6.051ZM-.337-15.94H4.443v15.1h3.6v-15.1h4.779v-2.918H-.337Zm26.184-2.944H15.44V-.835H25.847V-3.779H19.038V-8.555h6.039v-2.866H19.038V-15.94h6.809Zm13.67,0H29.111V-.835H39.517V-3.779H32.708V-8.555h6.039v-2.866H32.708V-15.94h6.809Z" transform="translate(182.483 478.654)" fill="#666"/>
  </g>
</svg>
